# xmcd CD database file
#
# Track frame offsets:
#	150
#	39637
#	63117
#
# Disc length: 1182 seconds
#
# Revision: 0
# Processed by: cddbd v1.5.2PL0 Copyright (c) Steve Scherf et al.
# Submitted via: CDex 1.51
#
DISCID=1e049c03
DTITLE=Chaka Khan - It's my party (3" CD Maxi Single)
DYEAR=1988
DGENRE=Blues
TTITLE0=It's My Party (New Party Mix)
TTITLE1=It's My Party (Club Edition)
TTITLE2=It's My Party (Club Instrumental)
EXTD=YEAR: 1988
EXTT0=
EXTT1=
EXTT2=
PLAYORDER=
